<?xml version="1.0" encoding="UTF-8"?>
<svg id="Layer_2" data-name="Layer 2" xmlns="http://www.w3.org/2000/svg" viewBox="0 0 58.52 79.11">
  <g id="_103" data-name="103">
    <g>
      <path d="M24.74,49.44c-8.81,0-17.02-4.74-21.43-12.36C-3.51,25.28,.55,10.13,12.35,3.31,16.11,1.15,20.38,0,24.69,0c8.82,0,17.03,4.74,21.43,12.36,3.3,5.72,4.18,12.38,2.47,18.76-1.71,6.38-5.8,11.71-11.52,15-3.76,2.17-8.02,3.32-12.34,3.32Zm-.05-48.14c-4.08,0-8.13,1.08-11.69,3.14C1.82,10.9-2.02,25.25,4.43,36.43c4.18,7.22,11.96,11.71,20.31,11.71,4.09,0,8.13-1.09,11.69-3.14,5.42-3.13,9.29-8.17,10.91-14.22,1.62-6.04,.79-12.35-2.34-17.77C40.83,5.79,33.05,1.3,24.69,1.3Z"/>
      <path d="M38.55,55.75c-.23,0-.44-.12-.56-.33l-4.62-8.01c-.09-.16-.11-.35-.05-.53,.06-.18,.19-.32,.36-.39,.61-.26,1.23-.57,1.84-.92,.59-.34,1.17-.72,1.72-1.13,.15-.11,.34-.16,.52-.12,.18,.04,.34,.15,.43,.31l4.62,8.02c.09,.15,.11,.33,.06,.49-.04,.17-.15,.31-.3,.39l-3.7,2.13c-.1,.06-.21,.09-.32,.09Zm-3.7-8.37l3.94,6.83,2.57-1.48-3.94-6.83c-.41,.29-.83,.55-1.26,.8-.43,.25-.87,.48-1.31,.69Z"/>
      <path d="M47.78,79.11c-.22,0-.44-.12-.56-.33l-12.43-21.52c-.09-.15-.11-.33-.07-.49,.04-.17,.15-.31,.3-.39l10.09-5.83c.15-.09,.33-.11,.49-.07,.17,.04,.31,.15,.39,.3l12.42,21.52c.18,.31,.07,.71-.24,.89l-10.08,5.82c-.1,.06-.21,.09-.32,.09Zm-11.54-21.93l11.78,20.39,8.96-5.17-11.77-20.4-8.96,5.18Z"/>
      <path d="M49.14,72.34c-1.13,0-2.18-.61-2.75-1.59-.42-.73-.54-1.58-.32-2.4,.22-.82,.75-1.5,1.48-1.93,.48-.28,1.03-.43,1.59-.43,1.13,0,2.18,.61,2.74,1.59,.42,.74,.54,1.6,.32,2.42-.22,.82-.74,1.5-1.48,1.91-.48,.28-1.03,.42-1.58,.42Zm0-5.04c-.33,0-.65,.09-.94,.25-.43,.25-.75,.65-.87,1.14-.13,.48-.06,.98,.19,1.42,.5,.86,1.69,1.18,2.56,.68,.43-.25,.74-.65,.87-1.12,.13-.49,.06-.99-.19-1.43-.33-.58-.95-.93-1.62-.93Z"/>
      <path d="M24.71,41.25c-9.11,0-16.53-7.42-16.53-16.54S15.6,8.19,24.71,8.19s16.53,7.41,16.53,16.53-7.42,16.54-16.53,16.54Zm0-31.76c-8.4,0-15.23,6.83-15.23,15.22s6.83,15.23,15.23,15.23,15.23-6.83,15.23-15.23-6.83-15.22-15.23-15.22Z"/>
      <path d="M24.71,41.25c-4.92,0-8.78-7.26-8.78-16.54s3.86-16.53,8.78-16.53,8.78,7.26,8.78,16.53-3.86,16.54-8.78,16.54Zm0-31.76c-4.05,0-7.48,6.97-7.48,15.22s3.42,15.23,7.48,15.23,7.48-6.98,7.48-15.23-3.42-15.22-7.48-15.22Z"/>
      <path d="M40.59,25.37H8.83c-.36,0-.65-.29-.65-.65s.29-.65,.65-.65h31.76c.36,0,.65,.29,.65,.65s-.29,.65-.65,.65Z"/>
      <path d="M24.71,41.25c-.36,0-.65-.29-.65-.65V8.84c0-.36,.29-.65,.65-.65s.65,.29,.65,.65v31.76c0,.36-.29,.65-.65,.65Z"/>
      <path d="M24.75,18.23c-4.37,0-8.75-.73-13.12-2.2-.34-.11-.52-.48-.41-.82,.11-.34,.48-.53,.82-.41,8.46,2.84,16.98,2.84,25.33,0,.34-.11,.71,.07,.82,.41,.12,.34-.07,.71-.41,.82-4.31,1.46-8.67,2.2-13.04,2.2Z"/>
      <path d="M37.59,34.34c-.07,0-.14-.01-.21-.04-8.35-2.83-16.87-2.83-25.33,0-.35,.12-.71-.07-.82-.41-.11-.34,.07-.71,.41-.82,8.74-2.93,17.54-2.93,26.16,0,.34,.12,.52,.48,.41,.82-.09,.27-.34,.44-.62,.44Z"/>
    </g>
  </g>
</svg>