<?xml version="1.0" encoding="UTF-8"?>
<svg id="Layer_2" data-name="Layer 2" xmlns="http://www.w3.org/2000/svg" viewBox="0 0 53.37 79.11">
  <g id="_103" data-name="103">
    <g>
      <path d="M40.08,49.67H13.29c-.12,0-.23-.03-.33-.09C4.97,44.77,0,36,0,26.69,0,11.97,11.97,0,26.69,0s26.69,11.97,26.69,26.69c0,9.46-4.84,18.02-12.96,22.9-.1,.06-.22,.09-.33,.09Zm-26.61-1.3h26.42c7.62-4.65,12.17-12.75,12.17-21.69C52.07,12.69,40.68,1.3,26.69,1.3S1.3,12.69,1.3,26.69c0,8.94,4.55,17.03,12.18,21.69Z"/>
      <path d="M36.72,72.24H16.66c-.36,0-.65-.29-.65-.65v-22.57c0-.36,.29-.65,.65-.65h20.07c.36,0,.65,.29,.65,.65v22.57c0,.36-.29,.65-.65,.65Zm-19.42-1.3h18.77v-21.27H17.31v21.27Z"/>
      <path d="M45.62,49.67H7.76c-.36,0-.65-.29-.65-.65s.29-.65,.65-.65H45.62c.36,0,.65,.29,.65,.65s-.29,.65-.65,.65Z"/>
      <path d="M40.6,57.91H12.77c-.36,0-.65-.29-.65-.65s.29-.65,.65-.65h27.83c.36,0,.65,.29,.65,.65s-.29,.65-.65,.65Z"/>
      <path d="M40.6,64.24H12.77c-.36,0-.65-.29-.65-.65s.29-.65,.65-.65h27.83c.36,0,.65,.29,.65,.65s-.29,.65-.65,.65Z"/>
      <path d="M26.69,79.11c-3.39,0-6.14-2.76-6.14-6.15,0-.52,.07-1.04,.2-1.54,.08-.29,.33-.49,.63-.49h10.64c.3,0,.55,.2,.63,.49,.13,.49,.19,1.01,.19,1.54,0,3.39-2.76,6.15-6.14,6.15Zm-4.79-6.87c-.04,.24-.05,.48-.05,.72,0,2.67,2.17,4.85,4.84,4.85s4.84-2.17,4.84-4.85c0-.25-.02-.49-.05-.72h-9.58Z"/>
      <path d="M23.11,44.12c-.06,0-.11,0-.17-.02l-2.65-.71c-.31-.08-.51-.38-.48-.7l.54-4.84c-.66-.32-1.28-.68-1.87-1.08l-3.92,2.9c-.26,.19-.62,.17-.85-.06l-1.94-1.95c-.23-.23-.25-.59-.06-.85l2.9-3.92c-.4-.59-.76-1.22-1.08-1.87l-4.84,.55c-.32,.04-.62-.17-.7-.48l-.71-2.66c-.08-.31,.07-.64,.37-.76l4.47-1.94c-.05-.71-.05-1.44,0-2.16l-4.47-1.94c-.3-.13-.45-.45-.37-.76l.62-2.3c.08-.31,.38-.52,.7-.48l4.84,.55c.32-.65,.68-1.28,1.08-1.88l-2.89-3.92c-.19-.26-.16-.62,.06-.85l1.94-1.94c.23-.23,.59-.25,.85-.06l3.92,2.9c.59-.41,1.21-.77,1.87-1.08l-.55-4.84c-.04-.32,.17-.62,.48-.7l2.65-.71c.31-.08,.64,.07,.76,.37l1.94,4.47c.71-.05,1.43-.05,2.16,0l1.95-4.47c.13-.29,.46-.45,.76-.37l2.65,.71c.31,.08,.51,.38,.48,.7l-.55,4.84c.65,.31,1.28,.67,1.87,1.08l3.92-2.89c.26-.19,.62-.16,.85,.06l1.94,1.94c.23,.23,.25,.59,.06,.85l-2.9,3.92c.41,.61,.77,1.23,1.08,1.88l4.84-.55c.32-.04,.62,.17,.7,.48l.71,2.66c.08,.31-.07,.63-.37,.76l-4.46,1.94c.05,.73,.05,1.45,0,2.16l4.46,1.95c.29,.13,.45,.45,.37,.76l-.61,2.3c-.08,.31-.39,.52-.7,.48l-4.84-.55c-.31,.65-.67,1.27-1.08,1.88l2.89,3.91c.19,.26,.17,.62-.06,.84l-1.94,1.95c-.23,.23-.59,.26-.85,.06l-3.92-2.9c-.59,.4-1.22,.77-1.87,1.08l.55,4.84c.04,.32-.17,.62-.48,.7l-2.65,.71c-.31,.08-.63-.07-.76-.37l-1.95-4.46c-.74,.05-1.46,.05-2.16,0l-1.95,4.46c-.11,.24-.34,.39-.6,.39Zm5.11-6.19c.26,0,.49,.15,.6,.39l1.91,4.38,1.57-.42-.54-4.75c-.03-.28,.12-.55,.38-.67,.87-.39,1.7-.87,2.46-1.42,.23-.17,.54-.17,.77,0l3.84,2.85,1.15-1.15-2.84-3.84c-.17-.23-.17-.54,0-.77,.56-.78,1.04-1.61,1.42-2.47,.12-.26,.38-.42,.67-.38l4.75,.54,.32-1.21-4.38-1.91c-.26-.11-.42-.38-.39-.67,.1-.92,.1-1.88,0-2.84-.03-.28,.13-.55,.39-.66l4.38-1.9-.42-1.57-4.75,.54c-.29,.03-.56-.12-.67-.39-.37-.85-.85-1.68-1.42-2.46-.17-.23-.17-.54,0-.77l2.84-3.84-1.15-1.15-3.85,2.84c-.23,.17-.54,.17-.77,0-.76-.55-1.58-1.03-2.46-1.41-.26-.11-.42-.38-.38-.67l.54-4.75-1.57-.42-1.91,4.39c-.11,.26-.38,.41-.67,.39-.95-.1-1.91-.1-2.84,0-.29,.03-.55-.13-.67-.39l-1.91-4.38-1.57,.42,.54,4.75c.03,.28-.12,.55-.38,.67-.87,.38-1.7,.86-2.45,1.42-.23,.17-.54,.17-.77,0l-3.85-2.85-1.15,1.15,2.84,3.84c.17,.23,.17,.54,0,.77-.55,.76-1.03,1.59-1.42,2.47-.11,.26-.38,.41-.67,.38l-4.75-.54-.33,1.21,4.38,1.91c.26,.11,.42,.38,.39,.66-.1,.96-.1,1.92,0,2.85,.03,.28-.13,.55-.39,.66l-4.38,1.91,.42,1.57,4.75-.54c.29-.03,.55,.12,.67,.38,.39,.87,.86,1.7,1.42,2.46,.17,.23,.17,.54,0,.77l-2.84,3.85,1.15,1.15,3.85-2.85c.23-.17,.55-.17,.78,0,.74,.55,1.57,1.03,2.45,1.42,.26,.11,.42,.38,.38,.67l-.53,4.75,1.57,.42,1.91-4.38c.11-.26,.38-.41,.67-.39,.9,.1,1.86,.1,2.84,0,.02,0,.04,0,.07,0Z"/>
      <path d="M26.69,34.99c-5.6,0-10.15-4.56-10.15-10.16s4.55-10.15,10.15-10.15,10.16,4.55,10.16,10.15-4.56,10.16-10.16,10.16Zm0-19.01c-4.88,0-8.85,3.97-8.85,8.85s3.97,8.85,8.85,8.85,8.86-3.97,8.86-8.85-3.97-8.85-8.86-8.85Z"/>
      <path d="M26.69,34.99c-3.09,0-5.51-4.46-5.51-10.16s2.42-10.15,5.51-10.15,5.52,4.46,5.52,10.15-2.42,10.16-5.52,10.16Zm0-19.01c-2.28,0-4.21,4.05-4.21,8.85s1.93,8.85,4.21,8.85,4.22-4.05,4.22-8.85-1.93-8.85-4.22-8.85Z"/>
      <path d="M36.19,25.49H17.18c-.36,0-.65-.29-.65-.65s.29-.65,.65-.65h19.01c.36,0,.65,.29,.65,.65s-.29,.65-.65,.65Z"/>
      <path d="M26.69,34.99c-.36,0-.65-.29-.65-.65V15.33c0-.36,.29-.65,.65-.65s.65,.29,.65,.65v19.01c0,.36-.29,.65-.65,.65Z"/>
      <path d="M26.71,21.21c-2.64,0-5.29-.44-7.93-1.33-.34-.12-.52-.48-.41-.82,.12-.34,.48-.52,.82-.41,5,1.69,10.04,1.69,14.99,0,.34-.11,.71,.07,.83,.41,.12,.34-.07,.71-.41,.83-2.61,.89-5.25,1.33-7.89,1.33Z"/>
      <path d="M18.98,30.86c-.27,0-.53-.17-.62-.44-.11-.34,.07-.71,.41-.82,5.28-1.77,10.6-1.77,15.82,0,.34,.11,.52,.48,.41,.82-.12,.34-.48,.52-.82,.41-4.95-1.67-9.99-1.67-14.99,0-.07,.02-.14,.03-.21,.03Z"/>
    </g>
  </g>
</svg>